<?xml version="1.0" ?><svg viewBox="0 0 32 32" xmlns="http://www.w3.org/2000/svg"><defs><style>.cls-1{fill:#d8e1ef;}.cls-2{fill:#0593ff;}</style></defs><title/><g data-name="Finger Print" id="Finger_Print"><path class="cls-1" d="M16,2A12,12,0,0,0,4,14V29a1,1,0,0,0,1,1H27a1,1,0,0,0,1-1V14A12,12,0,0,0,16,2Z"/><path class="cls-2" d="M16,27a9,9,0,0,1-9-9,1,1,0,0,1,2,0,7,7,0,0,0,7,7,1,1,0,0,1,0,2Z"/><path class="cls-2" d="M20.42,25.67a1,1,0,0,1-.56-1.83A7,7,0,0,0,23,18V14A7,7,0,0,0,9,14a1,1,0,0,1-2,0,9,9,0,0,1,18,0v4a9,9,0,0,1-4,7.5A1,1,0,0,1,20.42,25.67Z"/><path class="cls-2" d="M21,15a1,1,0,0,1-1-1,4,4,0,0,0-4-4,1,1,0,0,1,0-2,6,6,0,0,1,6,6A1,1,0,0,1,21,15Z"/><path class="cls-2" d="M16,24a6,6,0,0,1-6-6V14a6.05,6.05,0,0,1,2.42-4.82,1,1,0,0,1,1.2,1.61A4,4,0,0,0,12,14v4a4,4,0,0,0,8,0,1,1,0,0,1,2,0A6,6,0,0,1,16,24Z"/><path class="cls-2" d="M18,19a1,1,0,0,1-1-1V14a1,1,0,0,0-2,0v1a1,1,0,0,1-2,0V14a3,3,0,0,1,6,0v4A1,1,0,0,1,18,19Z"/><path class="cls-2" d="M16,21a3,3,0,0,1-3-3,1,1,0,0,1,2,0,1,1,0,0,0,1,1,1,1,0,0,1,0,2Z"/></g></svg>